<?xml version="1.0" encoding="utf-8"?>
<!-- Generator: Adobe Illustrator 21.0.0, SVG Export Plug-In . SVG Version: 6.00 Build 0)  -->
<svg version="1.1" id="Capa_1" xmlns="http://www.w3.org/2000/svg" xmlns:xlink="http://www.w3.org/1999/xlink" x="0px" y="0px"
	 viewBox="0 0 300.2 300.2" style="enable-background:new 0 0 300.2 300.2;" xml:space="preserve">
<g>
	<path d="M251.4,157.5c-1.4-1.6-2.5-3.3-3.5-5.1c-0.5,48.3-39.9,87.4-88.3,87.4c-48.7,0-88.3-39.6-88.3-88.3s39.6-88.3,88.3-88.3
		c41.9,0,77,29.3,86,68.5l8-59.4l0.2-1.3c-22.8-26.6-56.5-43.5-94.2-43.5c-29.4,0-56.4,10.3-77.7,27.4v1.3v1.1v25.2v1
		c0,16.8-8.7,32.2-22.5,40.9v98.4v1.7c22.6,30.9,59.1,51,100.2,51c43.2,0,81.3-22.2,103.5-55.8V218v-52.7
		C258.7,163.8,254.6,161.2,251.4,157.5z"/>
	<path d="M159.7,78.3c-40.4,0-73.3,32.9-73.3,73.3s32.9,73.3,73.3,73.3s73.3-32.9,73.3-73.3S200.1,78.3,159.7,78.3z"/>
	<path d="M299.8,14.5c0-6.4-5.2-11.6-11.6-11.6c-5.8,0-10.7,4.3-11.5,10l-16.9,125.5c-0.4,3.3,0.6,6.6,2.8,9.1
		c2.2,2.5,5.4,3.9,8.7,3.9h6.8v134.7c0,6.1,4.9,11,11,11s11-4.9,11-11L299.8,14.5z"/>
	<path d="M67,16.9c0-4.1-3.4-7.5-7.5-7.5S52,12.8,52,16.9v41.5H41V16.9c0-4.1-3.4-7.5-7.5-7.5S26,12.8,26,16.9v41.5H15V16.9
		c0-4.1-3.4-7.5-7.5-7.5S0,12.8,0,16.9v67.7c0,14.6,9.4,27.1,22.5,31.6v170c0,6.1,4.9,11,11,11s11-4.9,11-11v-170
		c13.1-4.6,22.5-17,22.5-31.6V16.9z"/>
</g>
</svg>
