<?xml version="1.0" encoding="iso-8859-1"?>
<!-- Generator: Adobe Illustrator 17.1.0, SVG Export Plug-In . SVG Version: 6.00 Build 0)  -->
<!DOCTYPE svg PUBLIC "-//W3C//DTD SVG 1.1//EN" "http://www.w3.org/Graphics/SVG/1.1/DTD/svg11.dtd">
<svg version="1.1" id="Capa_1" xmlns="http://www.w3.org/2000/svg" xmlns:xlink="http://www.w3.org/1999/xlink" x="0px" y="0px"
	 viewBox="0 0 413.415 413.415" style="enable-background:new 0 0 413.415 413.415;" xml:space="preserve">
<path id="XMLID_193_" d="M412.004,60.506c-2.506-3.64-7.489-4.558-11.126-2.053l-31.063,21.384c-1.878,1.292-3.115,3.325-3.4,5.586
	l-31.066,245.892c-0.167,1.33-0.991,3.846-2.908,3.846H18.848c-1.544,0-2.848-1.303-2.848-2.845c0-4.418-3.582-8-8-8s-8,3.582-8,8
	c0,10.391,8.455,18.845,18.848,18.845h42.83c-1.89,3.821-2.953,8.123-2.953,12.667c0,15.807,12.86,28.667,28.667,28.667
	s28.666-12.86,28.666-28.667c0-4.544-1.063-8.846-2.953-12.667h137.612c-1.89,3.821-2.953,8.123-2.953,12.667
	c0,15.807,12.86,28.667,28.667,28.667s28.667-12.86,28.667-28.667c0-4.544-1.063-8.846-2.953-12.667h30.296
	c9.58,0,17.479-7.505,18.782-17.842l30.616-242.335l28.111-19.352C413.59,69.127,414.509,64.145,412.004,60.506z M87.392,376.495
	c-6.984,0-12.667-5.683-12.667-12.667s5.683-12.667,12.667-12.667s12.666,5.683,12.666,12.667S94.376,376.495,87.392,376.495z
	 M276.431,376.495c-6.984,0-12.667-5.683-12.667-12.667s5.683-12.667,12.667-12.667s12.667,5.683,12.667,12.667
	S283.415,376.495,276.431,376.495z M49.397,315.69h247.128c9.155,0,16.604-7.448,16.604-16.604V96.013
	c0-9.155-7.449-16.604-16.604-16.604h-71.507V54.732c0-18.645-15.169-33.813-33.813-33.813h-36.487
	c-18.645,0-33.813,15.168-33.813,33.813v24.677H49.397c-9.155,0-16.604,7.448-16.604,16.604v203.074
	C32.793,308.242,40.242,315.69,49.397,315.69z M225.019,95.409h71.507c0.316,0,0.604,0.288,0.604,0.604v203.074
	c0,0.316-0.288,0.604-0.604,0.604h-71.507V95.409z M136.905,54.732c0-9.822,7.99-17.813,17.813-17.813h36.487
	c9.822,0,17.813,7.991,17.813,17.813v24.677h-72.113V54.732z M136.905,95.409h72.113V299.69h-72.113V95.409z M48.793,96.013
	c0-0.316,0.288-0.604,0.604-0.604h71.508V299.69H49.397c-0.316,0-0.604-0.288-0.604-0.604V96.013z"/>
<g>
</g>
<g>
</g>
<g>
</g>
<g>
</g>
<g>
</g>
<g>
</g>
<g>
</g>
<g>
</g>
<g>
</g>
<g>
</g>
<g>
</g>
<g>
</g>
<g>
</g>
<g>
</g>
<g>
</g>
</svg>
