<?xml version="1.0" encoding="iso-8859-1"?>
<!-- Generator: Adobe Illustrator 19.0.0, SVG Export Plug-In . SVG Version: 6.00 Build 0)  -->
<svg version="1.1" id="Layer_1" xmlns="http://www.w3.org/2000/svg" xmlns:xlink="http://www.w3.org/1999/xlink" x="0px" y="0px"
	 viewBox="0 0 512 512" style="enable-background:new 0 0 512 512;" xml:space="preserve">
<g>
	<g>
		<g>
			<path d="M59.733,153.6h290.133c4.719,0,8.533-3.823,8.533-8.533c0-4.71-3.814-8.533-8.533-8.533h-8.969
				c-4.232-66.005-57.062-115.362-127.565-119.091V8.533c0-4.71-3.814-8.533-8.533-8.533s-8.533,3.823-8.533,8.533v8.909
				C125.764,21.171,72.934,70.528,68.702,136.533h-8.969c-4.719,0-8.533,3.823-8.533,8.533C51.2,149.777,55.014,153.6,59.733,153.6z
				 M204.8,34.133c64.99,0,114.628,43.469,119.031,102.4H85.769C90.18,77.602,139.81,34.133,204.8,34.133z"/>
			<path d="M25.6,405.333c-4.719,0-8.533,3.823-8.533,8.533v55.467c0,4.71,3.814,8.533,8.533,8.533s8.533-3.823,8.533-8.533v-55.467
				C34.133,409.156,30.319,405.333,25.6,405.333z"/>
			<path d="M94.123,460.8h-0.085c-4.71,0-8.482,3.823-8.482,8.533s3.857,8.533,8.568,8.533s8.533-3.823,8.533-8.533
				S98.833,460.8,94.123,460.8z"/>
			<path d="M247.467,460.8H135.671c-3.959-19.448-21.205-34.133-41.805-34.133c-23.526,0-42.667,19.14-42.667,42.667
				C51.2,492.86,70.34,512,93.867,512c20.599,0,37.845-14.686,41.805-34.133h111.795c4.719,0,8.533-3.823,8.533-8.533
				S252.186,460.8,247.467,460.8z M93.867,494.933c-14.114,0-25.6-11.486-25.6-25.6s11.486-25.6,25.6-25.6
				c14.123,0,25.6,11.486,25.6,25.6S107.989,494.933,93.867,494.933z"/>
			<path d="M384,396.8c-4.719,0-8.533,3.823-8.533,8.533v46.933c0,4.702-3.823,8.533-8.533,8.533h-9.395
				c-3.959-19.448-21.205-34.133-41.805-34.133c-23.526,0-42.667,19.14-42.667,42.667c0,23.526,19.14,42.667,42.667,42.667
				c20.599,0,37.845-14.686,41.805-34.133h9.395c14.123,0,25.6-11.486,25.6-25.6v-46.933C392.533,400.623,388.719,396.8,384,396.8z
				 M315.733,494.933c-14.114,0-25.6-11.486-25.6-25.6s11.486-25.6,25.6-25.6c14.123,0,25.6,11.486,25.6,25.6
				S329.856,494.933,315.733,494.933z"/>
			<path d="M503.467,102.4h-34.133c-1.937,0-3.814,0.657-5.333,1.869l-82.987,66.398H25.6c-14.114,0-25.6,11.486-25.6,25.6
				c0,11.11,7.159,20.489,17.067,24.021v155.093l-0.017,1.673c-0.034,3.072,1.604,5.922,4.258,7.467
				c9.054,5.239,19.388,8.013,29.892,8.013c25.557,0,47.428-16.136,55.936-38.758c11.238,13.278,28.151,21.692,46.464,21.692
				c18.321,0,35.226-8.414,46.473-21.692c8.508,22.622,30.37,38.758,55.927,38.758c23.595,0,44.041-13.747,53.743-33.664
				C320.58,374.067,338.355,384,358.4,384c10.496,0,20.83-2.765,29.875-8.004c2.637-1.527,4.258-4.343,4.258-7.39V220.365
				c7.305-2.577,13.21-8.354,15.753-15.991c1.493-4.471-0.922-9.31-5.393-10.795c-4.514-1.51-9.301,0.922-10.795,5.393
				c-1.161,3.49-4.412,5.828-8.098,5.828H25.6c-4.71,0-8.533-3.831-8.533-8.533c0-4.702,3.823-8.533,8.533-8.533H384
				c1.946,0,3.814-0.657,5.333-1.869l82.995-66.398h31.138c4.719,0,8.533-3.823,8.533-8.533S508.186,102.4,503.467,102.4z
				 M34.133,221.867h341.333v141.508c-5.359,2.338-11.17,3.558-17.067,3.558c-23.526,0-42.667-19.14-42.667-42.667v-34.133
				c0-4.71-3.814-8.533-8.533-8.533s-8.533,3.823-8.533,8.533v34.133v8.533c0,23.526-19.14,42.667-42.667,42.667
				c-23.526,0-42.667-19.14-42.667-42.667v-8.533v-59.733c0-4.71-3.814-8.533-8.533-8.533s-8.533,3.823-8.533,8.533v58.752
				C192.666,343.33,174.43,358.4,153.6,358.4c-20.821,0-39.066-15.07-42.667-35.115v-24.619c0-4.71-3.814-8.533-8.533-8.533
				s-8.533,3.823-8.533,8.533v25.6v8.533c0,23.526-19.14,42.667-42.667,42.667c-5.897,0-11.716-1.22-17.067-3.558V221.867z"/>
			<path d="M315.989,460.8h-0.085c-4.71,0-8.482,3.823-8.482,8.533s3.857,8.533,8.568,8.533c4.71,0,8.533-3.823,8.533-8.533
				S320.7,460.8,315.989,460.8z"/>
		</g>
	</g>
</g>
<g>
</g>
<g>
</g>
<g>
</g>
<g>
</g>
<g>
</g>
<g>
</g>
<g>
</g>
<g>
</g>
<g>
</g>
<g>
</g>
<g>
</g>
<g>
</g>
<g>
</g>
<g>
</g>
<g>
</g>
</svg>
