<?xml version="1.0" encoding="iso-8859-1"?>
<!-- Generator: Adobe Illustrator 18.1.1, SVG Export Plug-In . SVG Version: 6.00 Build 0)  -->
<svg version="1.1" id="Capa_1" xmlns="http://www.w3.org/2000/svg" xmlns:xlink="http://www.w3.org/1999/xlink" x="0px" y="0px"
	 viewBox="0 0 612.002 612.002" style="enable-background:new 0 0 612.002 612.002;" xml:space="preserve">
<g>
	<path d="M608.698,264.221l-93.982-160.345c-4.316-7.365-12.213-11.889-20.751-11.889H24.053C10.769,91.985,0,102.755,0,116.039
		v307.868c0,13.284,10.769,24.052,24.053,24.052H71.92c6.038,40.714,41.212,72.056,83.577,72.056
		c42.366,0,77.542-31.341,83.58-72.056h133.85c6.038,40.714,41.212,72.056,83.577,72.056c42.366,0,77.542-31.341,83.58-72.056
		h47.867c13.284,0,24.052-10.769,24.052-24.052V276.384C612,272.109,610.859,267.91,608.698,264.221z M76.659,253.937V150.938
		h98.759v102.999H76.659z M155.495,479.29c-24.137,0-43.775-19.638-43.775-43.777s19.638-43.777,43.775-43.777
		c24.139,0,43.779,19.638,43.779,43.777S179.635,479.29,155.495,479.29z M325.832,253.937H221.098V150.938h104.734V253.937z
		 M456.502,479.29c-24.137,0-43.775-19.638-43.775-43.777s19.638-43.777,43.775-43.777c24.139,0,43.778,19.638,43.778,43.777
		S480.64,479.29,456.502,479.29z M371.509,253.937V150.938h95.308l68.524,102.999H371.509z"/>
</g>
<g>
</g>
<g>
</g>
<g>
</g>
<g>
</g>
<g>
</g>
<g>
</g>
<g>
</g>
<g>
</g>
<g>
</g>
<g>
</g>
<g>
</g>
<g>
</g>
<g>
</g>
<g>
</g>
<g>
</g>
</svg>
