<?xml version="1.0" encoding="iso-8859-1"?>
<!-- Generator: Adobe Illustrator 19.1.0, SVG Export Plug-In . SVG Version: 6.00 Build 0)  -->
<svg version="1.1" id="Capa_1" xmlns="http://www.w3.org/2000/svg" xmlns:xlink="http://www.w3.org/1999/xlink" x="0px" y="0px"
	 viewBox="0 0 416.703 416.703" style="enable-background:new 0 0 416.703 416.703;" xml:space="preserve">
<g>
	<path style="fill:#F998DC;" d="M360.681,157.378c23.88-28.23,22.51-70.66-4.09-97.26s-69.03-27.97-97.26-4.09
		c-1.53,1.29-3.01,2.65-4.45,4.09l-22.58,22.58l-26.88,26.88l-22.58,22.58c-1.44,1.44-2.8,2.92-4.09,4.45
		c-23.88,28.23-22.51,70.66,4.09,97.26s69.03,27.97,97.26,4.09c1.53-1.29,3.01-2.65,4.45-4.09l49.46-49.46l22.58-22.58
		C358.031,160.387,359.391,158.908,360.681,157.378z M129.961,222.527c-15.06-39.6-6.64-86.09,25.26-117.98l72.04-72.05
		c43.34-43.33,113.61-43.33,156.94,0c21.67,21.67,32.5,50.07,32.5,78.47c0,28.41-10.83,56.81-32.5,78.47l-72.04,72.05
		c-31.9,31.89-78.39,40.31-117.98,25.26c-14.21-5.4-27.52-13.82-38.96-25.26C143.781,250.048,135.361,236.738,129.961,222.527z"/>
	<path style="fill:#F7F09A;" d="M360.681,157.378c-1.29,1.53-2.65,3.01-4.09,4.45l-22.58,22.58l-49.46,49.46
		c-1.44,1.44-2.92,2.8-4.45,4.09c-28.23,23.88-70.66,22.51-97.26-4.09s-27.97-69.03-4.09-97.26c1.29-1.53,2.65-3.01,4.09-4.45
		l22.58-22.58l26.88-26.88l22.58-22.58c1.44-1.44,2.92-2.8,4.45-4.09c28.23-23.88,70.66-22.51,97.26,4.09
		S384.561,129.148,360.681,157.378z"/>
	<path style="fill:#61B0E0;" d="M194.181,286.747l-116.65,116.65c-17.73,17.74-46.49,17.74-64.22,0
		c-8.87-8.86-13.31-20.49-13.31-32.11s4.44-23.25,13.31-32.11l116.65-116.65c5.4,14.21,13.82,27.52,25.26,38.96
		C166.661,272.927,179.971,281.348,194.181,286.747z"/>
	<g>
		<path style="fill:#61B0E0;" d="M267.278,75.938c-2.472,0-4.893-1.222-6.324-3.459l-8.09-12.646
			c-2.224-3.494-1.193-8.13,2.301-10.354c3.495-2.223,8.131-1.193,10.354,2.301l8.07,12.614c2.233,3.489,1.214,8.127-2.275,10.359
			C270.062,75.556,268.662,75.938,267.278,75.938z"/>
		<path style="fill:#61B0E0;" d="M241.905,101.307c-2.104,0-4.195-0.88-5.678-2.596l-9.6-11.11
			c-2.708-3.134-2.363-7.871,0.771-10.579c3.135-2.709,7.871-2.362,10.579,0.771l9.6,11.11c2.708,3.134,2.363,7.871-0.771,10.579
			C245.388,100.707,243.642,101.307,241.905,101.307z"/>
		<path style="fill:#61B0E0;" d="M216.528,126.678c-1.737,0-3.482-0.6-4.9-1.825l-10.995-9.501
			c-1.659-1.375-2.717-3.452-2.717-5.774c0-4.142,3.353-7.5,7.495-7.5h2.792l13.232,11.425c3.134,2.708,3.48,7.444,0.771,10.579
			C220.723,125.798,218.631,126.678,216.528,126.678z"/>
		<path style="fill:#61B0E0;" d="M191.154,152.049c-1.384,0-2.783-0.382-4.035-1.184l-12.614-8.07
			c-3.495-2.224-4.525-6.86-2.301-10.354c2.225-3.495,6.86-4.526,10.354-2.301l12.646,8.09c3.489,2.232,4.508,6.871,2.275,10.359
			C196.047,150.827,193.626,152.049,191.154,152.049z"/>
		<path style="fill:#61B0E0;" d="M360.894,165.018c-1.377,0-2.771-0.379-4.019-1.173l-12.646-8.09
			c-3.489-2.232-4.508-6.871-2.275-10.359c2.232-3.49,6.87-4.508,10.359-2.275l12.614,8.07c3.495,2.224,4.525,6.86,2.301,10.354
			C365.799,163.79,363.373,165.018,360.894,165.018z"/>
		<path style="fill:#61B0E0;" d="M334.008,191.908c-1.737,0-3.482-0.6-4.9-1.825l-11.11-9.6c-3.134-2.708-3.479-7.444-0.771-10.579
			c2.709-3.134,7.444-3.479,10.579-0.771l11.11,9.6c3.134,2.708,3.479,7.444,0.771,10.579
			C338.203,191.028,336.111,191.908,334.008,191.908z"/>
		<path style="fill:#61B0E0;" d="M307.124,218.787c-2.105,0-4.198-0.881-5.681-2.599l-9.59-11.11
			c-2.707-3.136-2.359-7.872,0.776-10.578c3.136-2.708,7.872-2.359,10.578,0.776l9.59,11.11c2.707,3.136,2.359,7.872-0.776,10.578
			C310.604,218.188,308.86,218.787,307.124,218.787z"/>
		<path style="fill:#61B0E0;" d="M280.248,245.678c-2.483,0-4.913-1.232-6.341-3.484l-0.14-0.22l-7.931-12.38
			c-2.235-3.488-1.219-8.126,2.269-10.361c3.486-2.234,8.126-1.22,10.361,2.269l8.109,12.659c2.218,3.498,1.181,8.132-2.317,10.351
			C283.012,245.302,281.622,245.678,280.248,245.678z"/>
		<path style="fill:#61B0E0;" d="M320.94,78.848c-0.239,0-0.48-0.011-0.722-0.035c-4.123-0.394-7.146-4.056-6.752-8.179l0.66-6.91
			c0.394-4.124,4.055-7.153,8.179-6.752c4.123,0.394,7.146,4.056,6.752,8.179l-0.66,6.91
			C328.026,75.942,324.761,78.848,320.94,78.848z"/>
		<path style="fill:#61B0E0;" d="M295.542,104.219c-3.628,0-6.817-2.638-7.399-6.334l-0.85-5.4c-0.644-4.092,2.15-7.931,6.242-8.575
			c4.093-0.642,7.931,2.151,8.575,6.242l0.85,5.4c0.644,4.092-2.15,7.931-6.242,8.575
			C296.323,104.189,295.93,104.219,295.542,104.219z"/>
		<path style="fill:#61B0E0;" d="M270.188,129.589c-2.528,0-4.995-1.277-6.408-3.592l-2.37-3.88
			c-2.159-3.535-1.043-8.151,2.492-10.309c3.535-2.16,8.151-1.043,10.31,2.492l2.37,3.88c2.159,3.535,1.043,8.151-2.492,10.31
			C272.87,129.234,271.52,129.589,270.188,129.589z"/>
		<path style="fill:#61B0E0;" d="M244.804,154.958c-1.328,0-2.672-0.352-3.89-1.093l-3.88-2.36
			c-3.539-2.152-4.664-6.766-2.511-10.305c2.153-3.539,6.765-4.663,10.305-2.511l3.88,2.36c3.539,2.152,4.664,6.766,2.511,10.305
			C249.808,153.676,247.336,154.958,244.804,154.958z"/>
		<path style="fill:#61B0E0;" d="M219.451,180.339c-0.393,0-0.79-0.031-1.189-0.094l-5.4-0.86c-4.09-0.652-6.878-4.496-6.227-8.587
			c0.652-4.091,4.494-6.876,8.587-6.227l5.4,0.86c4.09,0.652,6.878,4.496,6.227,8.587
			C226.26,177.709,223.073,180.339,219.451,180.339z"/>
		<path style="fill:#61B0E0;" d="M187.152,206.368c-3.821,0-7.086-2.906-7.457-6.787c-0.394-4.124,2.629-7.786,6.752-8.179
			l6.91-0.66c4.138-0.398,7.786,2.629,8.179,6.753c0.394,4.123-2.629,7.786-6.753,8.179l-6.91,0.66
			C187.632,206.357,187.391,206.368,187.152,206.368z"/>
		<path style="fill:#61B0E0;" d="M345.352,103.278c-3.821,0-7.086-2.906-7.457-6.787c-0.394-4.123,2.629-7.786,6.752-8.179
			l6.91-0.66c4.134-0.399,7.786,2.629,8.179,6.752c0.394,4.124-2.629,7.786-6.753,8.179l-6.91,0.66
			C345.832,103.267,345.591,103.278,345.352,103.278z"/>
		<path style="fill:#61B0E0;" d="M325.391,129.509c-0.393,0-0.791-0.031-1.191-0.095l-5.39-0.86
			c-4.09-0.653-6.877-4.498-6.224-8.588c0.653-4.09,4.5-6.878,8.588-6.224l5.39,0.86c4.09,0.653,6.877,4.498,6.224,8.588
			C332.199,126.88,329.012,129.509,325.391,129.509z"/>
		<path style="fill:#61B0E0;" d="M298.494,156.389c-1.328,0-2.672-0.353-3.89-1.093l-3.88-2.36
			c-3.539-2.152-4.664-6.766-2.511-10.305c2.153-3.538,6.764-4.663,10.305-2.511l3.88,2.36c3.539,2.152,4.664,6.766,2.511,10.305
			C303.497,155.106,301.026,156.389,298.494,156.389z"/>
		<path style="fill:#61B0E0;" d="M271.619,183.279c-2.527,0-4.994-1.277-6.408-3.592l-2.37-3.88
			c-2.159-3.535-1.044-8.15,2.491-10.31c3.535-2.16,8.151-1.044,10.31,2.491l2.37,3.88c2.159,3.535,1.044,8.15-2.491,10.309
			C274.3,182.924,272.951,183.279,271.619,183.279z"/>
		<path style="fill:#61B0E0;" d="M244.722,210.168c-3.622,0-6.809-2.63-7.397-6.321l-0.86-5.4c-0.651-4.091,2.136-7.935,6.227-8.587
			c4.091-0.649,7.935,2.136,8.587,6.227l0.86,5.4c0.651,4.091-2.136,7.935-6.227,8.587
			C245.512,210.137,245.114,210.168,244.722,210.168z"/>
		<path style="fill:#61B0E0;" d="M217.85,237.048c-0.239,0-0.479-0.011-0.722-0.035c-4.123-0.394-7.146-4.056-6.752-8.179l0.66-6.91
			c0.394-4.124,4.054-7.146,8.179-6.752c4.123,0.394,7.147,4.056,6.753,8.179l-0.66,6.91
			C224.936,234.142,221.671,237.048,217.85,237.048z"/>
	</g>
</g>
<g>
</g>
<g>
</g>
<g>
</g>
<g>
</g>
<g>
</g>
<g>
</g>
<g>
</g>
<g>
</g>
<g>
</g>
<g>
</g>
<g>
</g>
<g>
</g>
<g>
</g>
<g>
</g>
<g>
</g>
</svg>
