<?xml version="1.0" encoding="iso-8859-1"?>
<!-- Generator: Adobe Illustrator 19.1.0, SVG Export Plug-In . SVG Version: 6.00 Build 0)  -->
<svg version="1.1" id="Capa_1" xmlns="http://www.w3.org/2000/svg" xmlns:xlink="http://www.w3.org/1999/xlink" x="0px" y="0px"
	 viewBox="0 0 425.263 425.263" style="enable-background:new 0 0 425.263 425.263;" xml:space="preserve">
<g>
	<path style="fill:#F998DC;" d="M203.93,260.022L47.56,416.392c-10.88,10.88-28.52,10.88-39.4,0c-10.88-10.88-10.88-28.53,0-39.41
		l156.37-156.36L203.93,260.022z"/>
	<path style="fill:#F7F09A;" d="M341.693,10.456l72.395,72.403c4.387,4.387,4.386,11.499,0,15.886L236.313,276.519
		c-4.387,4.387-11.5,4.387-15.886,0l-16.497-16.497l-39.4-39.4l-16.504-16.497c-4.388-4.387-4.389-11.501-0.002-15.888
		L325.806,10.456C330.193,6.069,337.306,6.069,341.693,10.456z"/>
	<g>
		<path style="fill:#60E2BD;" d="M350.84,81.212c-1.98,0-3.91-0.8-5.31-2.19c-1.39-1.4-2.19-3.33-2.19-5.31
			c0-1.97,0.8-3.91,2.19-5.3c1.4-1.4,3.33-2.2,5.31-2.2c1.97,0,3.9,0.8,5.3,2.2c1.39,1.39,2.2,3.33,2.2,5.3
			c0,1.98-0.81,3.91-2.2,5.31C354.74,80.412,352.81,81.212,350.84,81.212z"/>
		<path style="fill:#60E2BD;" d="M322.93,109.122c-1.98,0-3.91-0.8-5.31-2.19c-1.39-1.4-2.2-3.33-2.2-5.31c0-1.97,0.81-3.9,2.2-5.3
			c1.4-1.4,3.33-2.2,5.31-2.2c1.97,0,3.9,0.8,5.3,2.2c1.39,1.4,2.19,3.33,2.19,5.3c0,1.98-0.8,3.91-2.19,5.31
			C326.83,108.322,324.9,109.122,322.93,109.122z"/>
		<path style="fill:#60E2BD;" d="M295.02,137.032c-1.98,0-3.91-0.8-5.31-2.19c-1.39-1.4-2.19-3.33-2.19-5.31
			c0-1.97,0.8-3.9,2.19-5.3c1.4-1.4,3.33-2.2,5.31-2.2c1.97,0,3.9,0.8,5.3,2.2c1.39,1.4,2.2,3.33,2.2,5.3c0,1.98-0.81,3.91-2.2,5.31
			C298.92,136.232,296.99,137.032,295.02,137.032z"/>
		<path style="fill:#60E2BD;" d="M267.1,164.942c-1.97,0-3.9-0.8-5.3-2.19c-1.4-1.4-2.2-3.33-2.2-5.31c0-1.97,0.8-3.9,2.2-5.3
			s3.33-2.2,5.3-2.2c1.98,0,3.91,0.8,5.31,2.2c1.39,1.4,2.19,3.33,2.19,5.3c0,1.98-0.8,3.91-2.19,5.31
			C271.01,164.142,269.08,164.942,267.1,164.942z"/>
		<path style="fill:#60E2BD;" d="M239.19,192.852c-1.97,0-3.9-0.8-5.3-2.19c-1.39-1.4-2.2-3.33-2.2-5.31c0-1.97,0.81-3.9,2.2-5.3
			c1.4-1.4,3.33-2.2,5.3-2.2c1.98,0,3.91,0.8,5.31,2.2c1.39,1.4,2.19,3.33,2.19,5.3c0,1.98-0.8,3.91-2.19,5.31
			C243.1,192.052,241.17,192.852,239.19,192.852z"/>
		<path style="fill:#60E2BD;" d="M211.28,220.762c-1.97,0-3.9-0.8-5.3-2.19c-1.4-1.4-2.2-3.33-2.2-5.31c0-1.97,0.8-3.9,2.2-5.3
			c1.4-1.4,3.33-2.2,5.3-2.2c1.98,0,3.91,0.8,5.31,2.2c1.39,1.4,2.2,3.33,2.2,5.3c0,1.98-0.81,3.91-2.2,5.31
			C215.19,219.962,213.26,220.762,211.28,220.762z"/>
	</g>
	<g>
		<path style="fill:#60E2BD;" d="M417.763,148.142c-1.919,0-3.839-0.732-5.303-2.197l-35.6-35.6c-2.929-2.929-2.929-7.678,0-10.606
			c2.929-2.929,7.678-2.929,10.607,0l35.6,35.6c2.929,2.929,2.929,7.678,0,10.607C421.602,147.41,419.683,148.142,417.763,148.142z"
			/>
		<path style="fill:#60E2BD;" d="M389.852,176.053c-1.919,0-3.839-0.732-5.303-2.197l-35.6-35.6c-2.929-2.929-2.929-7.678,0-10.606
			c2.929-2.929,7.678-2.93,10.606,0l35.6,35.6c2.929,2.929,2.929,7.678,0,10.606C393.691,175.32,391.771,176.053,389.852,176.053z"
			/>
		<path style="fill:#60E2BD;" d="M361.942,203.963c-1.919,0-3.839-0.732-5.303-2.197l-35.6-35.6c-2.929-2.929-2.929-7.678,0-10.607
			c2.929-2.929,7.678-2.929,10.607,0l35.6,35.6c2.929,2.929,2.929,7.678,0,10.607C365.781,203.23,363.861,203.963,361.942,203.963z"
			/>
		<path style="fill:#60E2BD;" d="M334.032,231.873c-1.919,0-3.839-0.732-5.303-2.197l-35.6-35.6c-2.929-2.929-2.929-7.678,0-10.606
			c2.929-2.929,7.678-2.929,10.606,0l35.6,35.6c2.929,2.929,2.929,7.678,0,10.606C337.871,231.141,335.952,231.873,334.032,231.873z
			"/>
		<path style="fill:#60E2BD;" d="M306.122,259.783c-1.919,0-3.839-0.733-5.303-2.197l-35.6-35.6c-2.929-2.929-2.929-7.678,0-10.606
			c2.929-2.929,7.678-2.929,10.607,0l35.6,35.6c2.929,2.929,2.929,7.678,0,10.607C309.961,259.051,308.041,259.783,306.122,259.783z
			"/>
		<path style="fill:#60E2BD;" d="M278.212,287.693c-1.919,0-3.839-0.732-5.303-2.197l-35.6-35.6c-2.929-2.929-2.929-7.678,0-10.606
			c2.929-2.929,7.678-2.929,10.606,0l35.6,35.6c2.929,2.929,2.929,7.678,0,10.606C282.051,286.961,280.131,287.693,278.212,287.693z
			"/>
	</g>
	<g>
		<path style="fill:#60E2BD;" d="M320.932,51.311c-1.919,0-3.839-0.732-5.303-2.197l-35.6-35.6c-2.929-2.929-2.929-7.678,0-10.606
			c2.929-2.929,7.678-2.929,10.606,0l35.6,35.6c2.929,2.929,2.929,7.678,0,10.606C324.77,50.579,322.851,51.311,320.932,51.311z"/>
		<path style="fill:#60E2BD;" d="M293.021,79.221c-1.919,0-3.839-0.732-5.303-2.197l-35.6-35.6c-2.929-2.929-2.929-7.678,0-10.607
			c2.929-2.929,7.678-2.929,10.607,0l35.6,35.6c2.929,2.929,2.929,7.678,0,10.606C296.86,78.489,294.941,79.221,293.021,79.221z"/>
		<path style="fill:#60E2BD;" d="M265.111,107.131c-1.919,0-3.839-0.732-5.303-2.197l-35.6-35.6c-2.929-2.929-2.929-7.678,0-10.606
			c2.929-2.929,7.678-2.929,10.606,0l35.6,35.6c2.929,2.929,2.929,7.678,0,10.606C268.95,106.399,267.031,107.131,265.111,107.131z"
			/>
		<path style="fill:#60E2BD;" d="M237.201,135.041c-1.92,0-3.839-0.732-5.303-2.197l-35.6-35.6c-2.929-2.929-2.929-7.678,0-10.606
			c2.929-2.929,7.678-2.929,10.607,0l35.6,35.6c2.929,2.929,2.929,7.678,0,10.607C241.039,134.309,239.12,135.041,237.201,135.041z"
			/>
		<path style="fill:#60E2BD;" d="M209.29,162.952c-1.919,0-3.839-0.732-5.303-2.197l-35.6-35.6c-2.929-2.929-2.929-7.678,0-10.606
			c2.929-2.929,7.678-2.929,10.606,0l35.6,35.6c2.929,2.929,2.929,7.678,0,10.606C213.129,162.219,211.21,162.952,209.29,162.952z"
			/>
		<path style="fill:#60E2BD;" d="M181.38,190.862c-1.92,0-3.839-0.732-5.303-2.197l-35.6-35.6c-2.929-2.929-2.929-7.678,0-10.607
			c2.929-2.929,7.678-2.929,10.607,0l35.6,35.6c2.929,2.929,2.929,7.678,0,10.607C185.219,190.129,183.3,190.862,181.38,190.862z"/>
	</g>
</g>
<g>
</g>
<g>
</g>
<g>
</g>
<g>
</g>
<g>
</g>
<g>
</g>
<g>
</g>
<g>
</g>
<g>
</g>
<g>
</g>
<g>
</g>
<g>
</g>
<g>
</g>
<g>
</g>
<g>
</g>
</svg>
