<?xml version="1.0" encoding="iso-8859-1"?>
<!-- Generator: Adobe Illustrator 19.0.0, SVG Export Plug-In . SVG Version: 6.00 Build 0)  -->
<svg version="1.1" id="Layer_1" xmlns="http://www.w3.org/2000/svg" xmlns:xlink="http://www.w3.org/1999/xlink" x="0px" y="0px"
	 viewBox="0 0 511.994 511.994" style="enable-background:new 0 0 511.994 511.994;" xml:space="preserve">
<path style="fill:#BA82AA;" d="M143.461,377.399c-62.367,91.182-97.295,112.63-124.127,85.799s-5.383-61.76,85.799-124.127
	L143.461,377.399z"/>
<path style="fill:#FFA6BB;" d="M141.13,285.658l-24.479,24.479c-15.393,15.393-15.393,40.349,0,55.742l0,0
	c15.393,15.393,40.349,15.393,55.742,0l24.479-24.479L141.13,285.658z"/>
<path style="opacity:0.1;enable-background:new    ;" d="M122.914,356.852L122.914,356.852
	c-0.279-10.439,3.553-20.966,11.519-28.932l24.479-24.479l-17.782-17.782l-24.479,24.479c-7.966,7.966-11.799,18.494-11.519,28.932
	l0,0c-91.182,62.367-112.63,97.295-85.799,124.127c3.262,3.262,6.645,5.805,10.181,7.6
	C16.535,445.248,42.818,411.637,122.914,356.852z"/>
<path style="fill:#BA82AA;" d="M246.421,356.735l180.413-180.412c23.904-23.904,23.904-62.66,0-86.564l-33.84-33.839
	c-23.904-23.904-62.66-23.904-86.564,0L126.017,236.332c-23.904,23.904-23.904,62.66,0,86.564l33.839,33.84
	C183.762,380.639,222.518,380.639,246.421,356.735z"/>
<path style="opacity:0.1;enable-background:new    ;" d="M141.375,251.689L321.787,71.277c23.904-23.904,62.66-23.904,86.564,0
	L392.993,55.92c-23.904-23.904-62.66-23.904-86.564,0L126.017,236.332c-23.904,23.904-23.904,62.66,0,86.564l15.357,15.357
	C117.471,314.349,117.471,275.593,141.375,251.689z"/>
<g>
	<path style="fill:#FFA6BB;" d="M158.237,282.371c-3.81-3.81-3.81-10.009,0-13.819L338.649,88.14c3.81-3.81,10.009-3.81,13.819,0
		l41.923,41.923c3.81,3.81,3.81,10.01,0,13.82L213.979,324.294c-3.81,3.81-10.009,3.81-13.819-0.001L158.237,282.371z"/>
	<path style="fill:#FFA6BB;" d="M279.56,389.875l180.412-180.412c23.904-23.904,23.904-62.66,0-86.564l-33.139-33.14
		c23.904,23.904,23.904,62.66,0,86.564L246.421,356.735c-23.904,23.904-62.66,23.904-86.564,0l33.139,33.139
		C216.901,413.779,255.657,413.779,279.56,389.875z"/>
</g>
<path d="M194.098,330.354c3.461,3.462,8.069,5.369,12.972,5.369h0.001c4.903,0,9.509-1.907,12.97-5.368l180.414-180.414
	c7.15-7.152,7.15-18.79-0.002-25.942L358.53,82.076c-7.152-7.152-18.79-7.152-25.942,0L211.138,203.527
	c-3.348,3.348-3.348,8.776,0,12.123c3.348,3.348,8.776,3.348,12.123,0L344.711,94.202c0.46-0.46,1.234-0.46,1.694,0l41.923,41.923
	c0.46,0.46,0.46,1.237,0.001,1.695L207.916,318.233c-0.286,0.286-0.617,0.345-0.846,0.345c-0.229,0-0.561-0.061-0.848-0.346
	l-41.923-41.922c-0.286-0.286-0.346-0.62-0.346-0.847c0-0.229,0.059-0.561,0.346-0.847l34.901-34.903
	c3.348-3.348,3.348-8.776,0-12.123c-3.348-3.348-8.776-3.348-12.123,0l-34.901,34.903c-3.462,3.461-5.369,8.069-5.369,12.972
	s1.906,9.509,5.368,12.972L194.098,330.354z"/>
<path d="M42.494,482.533c1.189,0,2.386-0.056,3.594-0.168c26.435-2.459,57.039-31.4,101.961-96.513
	c7.781-0.566,15.205-2.989,21.745-7.056l17.143,17.143c13.18,13.18,30.704,20.439,49.343,20.439c8.722,0,17.192-1.609,25.094-4.65
	l27.65,27.65c1.673,1.673,3.868,2.511,6.062,2.511c2.194,0,4.388-0.837,6.062-2.511c3.348-3.348,3.348-8.775,0-12.123
	l-24.055-24.055c3.002-2.173,5.859-4.588,8.531-7.26l0.815-0.815l23.419,23.419c1.673,1.673,3.868,2.511,6.062,2.511
	c2.194,0,4.388-0.837,6.062-2.511c3.348-3.348,3.348-8.775,0-12.123l-23.419-23.419l8.71-8.71l23.419,23.419
	c1.673,1.675,3.868,2.511,6.062,2.511c2.194,0,4.388-0.837,6.062-2.511c3.348-3.348,3.348-8.775,0-12.123l-23.419-23.419l8.71-8.71
	l23.419,23.419c1.673,1.675,3.868,2.511,6.062,2.511s4.388-0.837,6.062-2.511c3.348-3.348,3.348-8.775,0-12.123l-23.419-23.419
	l8.71-8.71l23.419,23.419c1.673,1.675,3.868,2.511,6.062,2.511c2.194,0,4.388-0.837,6.062-2.511c3.348-3.348,3.348-8.775,0-12.123
	L361.062,320.5l8.71-8.71l23.419,23.419c1.673,1.675,3.868,2.511,6.062,2.511c2.194,0,4.388-0.837,6.062-2.511
	c3.348-3.348,3.348-8.775,0-12.123l-23.419-23.419l8.71-8.71l23.419,23.419c1.673,1.675,3.868,2.511,6.062,2.511
	s4.388-0.837,6.062-2.511c3.348-3.348,3.348-8.775,0-12.123l-23.419-23.419l8.71-8.71l23.419,23.419
	c1.673,1.675,3.868,2.511,6.062,2.511c2.194,0,4.388-0.837,6.062-2.511c3.348-3.348,3.348-8.775,0-12.123l-23.419-23.419l8.71-8.71
	l23.419,23.419c1.673,1.675,3.868,2.511,6.062,2.511s4.388-0.837,6.062-2.511c3.348-3.348,3.348-8.776,0-12.123l-23.419-23.419
	l8.71-8.71l23.419,23.419c1.673,1.675,3.868,2.511,6.062,2.511c2.194,0,4.388-0.837,6.062-2.511c3.348-3.348,3.348-8.777,0-12.123
	l-23.419-23.419l0.799-0.799c2.693-2.693,5.108-5.559,7.269-8.554l24.062,24.062c1.673,1.675,3.868,2.511,6.062,2.511
	c2.194,0,4.388-0.837,6.062-2.511c3.348-3.348,3.348-8.776,0-12.123l-27.686-27.686c9.551-24.946,4.308-54.308-15.768-74.385
	c0,0-33.139-33.14-33.143-33.143l-33.836-33.836c-27.209-27.207-71.479-27.207-98.687,0L119.956,230.27
	c-21.324,21.324-25.931,53.127-13.829,78.984c-5.601,7.483-8.728,16.252-9.387,25.178c-16.693,11.515-30.725,21.901-42.797,31.678
	c-3.68,2.979-4.247,8.378-1.267,12.057c2.98,3.68,8.378,4.247,12.058,1.267c9.93-8.04,21.262-16.535,34.413-25.785
	c-0.585,0.411,3.355,7.534,3.83,8.352c2.079,3.579,4.591,6.913,7.519,9.842c0.031,0.031,0.059,0.065,0.091,0.096
	c0.023,0.023,0.047,0.043,0.07,0.065c2.65,2.64,5.622,4.964,8.804,6.929c0.89,0.55,8.916,5.153,9.411,4.451
	c-37.533,53.297-65.184,80.122-84.375,81.907c-6.829,0.636-12.904-1.956-19.103-8.157c-6.558-6.557-20.203-20.203,14.458-55.454
	c3.319-3.377,3.274-8.804-0.103-12.123c-3.377-3.319-8.805-3.274-12.123,0.103c-15.551,15.817-24.336,29.763-26.855,42.638
	c-2.656,13.575,1.549,26.011,12.501,36.961C22.09,478.079,31.905,482.533,42.494,482.533z M132.08,242.395L312.492,61.982
	c20.523-20.523,53.916-20.523,74.439,0l33.84,33.839c20.523,20.523,20.523,53.916,0,74.44l-27.294,27.294
	c-3.299,3.299-3.295,8.829,0,12.123c3.302,3.302,8.826,3.298,12.123,0l27.294-27.294c0.022-0.023,0.042-0.046,0.064-0.067
	c5.616-5.632,10.279-12.247,13.664-19.446c3.031-6.447,5.236-13.477,6.054-20.57c0.513-4.45,0.749-8.934,0.487-13.409
	c-0.014-0.235-0.015-0.472-0.031-0.709l0.777,0.777c20.523,20.524,20.523,53.916-0.002,74.444
	c-3.986,7.96-48.575,48.573-48.561,48.559c-30.057,30.057-60.114,60.114-90.171,90.171c-13.893,13.893-27.786,27.786-41.679,41.679
	c-9.941,9.941-23.16,15.417-37.22,15.417s-27.278-5.475-37.22-15.417l-0.761-0.761c1.605,0.109,3.217,0.184,4.841,0.184
	c13.374,0,26.163-3.755,37.196-10.735c0.103-0.065,0.205-0.13,0.307-0.194c4.282-2.707,8.26-5.929,11.841-9.509l51.545-51.546
	l77.317-77.317c3.348-3.348,3.348-8.776,0-12.125c-3.297-3.297-8.832-3.292-12.125,0l-128.86,128.864
	c-1.273,1.273-2.615,2.485-4.012,3.622c-17.482,14.236-42.039,15.542-60.834,3.949c-3.472-2.141-6.709-4.687-9.593-7.572
	l-33.839-33.839c-3.166-3.167-5.931-6.74-8.195-10.603C112.074,286.068,114.803,259.671,132.08,242.395z M126.091,362.668
	c-2.452-1.798-4.644-3.968-6.477-6.478c-0.041-0.057-0.081-0.114-0.121-0.17c-6.497-9.042-7.512-20.888-3.017-30.806
	c-0.199,0.455,3.159,3.422,3.482,3.745c0.002,0.002,33.839,33.839,33.839,33.839l3.353,3.353c-0.091-0.091-6.528,2.101-7.264,2.23
	C141.619,369.833,132.837,367.619,126.091,362.668z"/>
<g>
</g>
<g>
</g>
<g>
</g>
<g>
</g>
<g>
</g>
<g>
</g>
<g>
</g>
<g>
</g>
<g>
</g>
<g>
</g>
<g>
</g>
<g>
</g>
<g>
</g>
<g>
</g>
<g>
</g>
</svg>
