<?xml version="1.0" encoding="iso-8859-1"?>
<!-- Generator: Adobe Illustrator 19.1.0, SVG Export Plug-In . SVG Version: 6.00 Build 0)  -->
<svg version="1.1" id="Capa_1" xmlns="http://www.w3.org/2000/svg" xmlns:xlink="http://www.w3.org/1999/xlink" x="0px" y="0px"
	 viewBox="0 0 367.8 367.8" style="enable-background:new 0 0 367.8 367.8;" xml:space="preserve">
<g>
	<path style="fill:#FFA5A5;" d="M178.524,280.24v66.793h10.752V280.24c-1.785,0.064-3.575,0.108-5.375,0.108
		C182.1,280.348,180.309,280.304,178.524,280.24z"/>
	<path style="fill:#FFFFFF;" d="M183.9,273.289c-1.801,0-3.591-0.044-5.377-0.108v7.059c1.785,0.064,3.576,0.108,5.377,0.108
		c1.8,0,3.59-0.044,5.375-0.108v-7.059C187.491,273.245,185.701,273.289,183.9,273.289z"/>
	<path style="fill:#FFFFFF;" d="M348.51,119.434c0.865,0,1.703,0.116,2.509,0.312c-1.905-2.855-5.153-4.741-8.835-4.741
		c-5.854,0-10.616,4.763-10.616,10.617c0,4.989,3.463,9.173,8.108,10.305c-1.124-1.684-1.782-3.704-1.782-5.876
		C337.894,124.197,342.656,119.434,348.51,119.434z"/>
	<path style="fill:#FFA5A5;" d="M337.894,130.051c0,2.169,0.657,4.186,1.777,5.869c0.807,0.2,1.645,0.319,2.513,0.319
		c5.854,0,10.617-4.763,10.617-10.617c0-1.633-0.381-3.175-1.043-4.559c-0.22-0.46-0.472-0.9-0.753-1.321
		c-0.802-0.194-1.634-0.309-2.495-0.309C342.656,119.434,337.894,124.197,337.894,130.051z"/>
	<g>
		<path style="fill:#FFFFFF;" d="M31.943,119.434c0.865,0,1.703,0.116,2.509,0.312c-1.905-2.855-5.153-4.741-8.835-4.741
			c-5.854,0-10.616,4.763-10.616,10.617c0,4.989,3.463,9.173,8.108,10.305c-1.124-1.684-1.782-3.704-1.782-5.876
			C21.327,124.197,26.089,119.434,31.943,119.434z"/>
		<path style="fill:#FFA5A5;" d="M21.327,130.051c0,2.169,0.657,4.186,1.777,5.869c0.807,0.2,1.644,0.319,2.513,0.319
			c5.854,0,10.617-4.763,10.617-10.617c0-1.633-0.381-3.175-1.043-4.559c-0.22-0.46-0.472-0.9-0.753-1.321
			c-0.802-0.194-1.634-0.309-2.495-0.309C26.089,119.434,21.327,124.197,21.327,130.051z"/>
	</g>
	<path style="fill:#FFFFFF;" d="M88.904,131.256c0-57.817,47.038-104.855,104.856-104.855c16.843,0,32.767,3.998,46.884,11.085
		c-16.367-10.574-35.85-16.719-56.744-16.719c-57.818,0-104.856,47.038-104.856,104.855c0,40.975,23.628,76.531,57.972,93.772
		C108.091,200.707,88.904,168.181,88.904,131.256z"/>
	<g>
		<path style="fill:none;" d="M342.183,115.005c-5.854,0-10.616,4.763-10.616,10.617c0,5.854,4.762,10.617,10.616,10.617
			c5.854,0,10.617-4.763,10.617-10.617C352.8,119.768,348.038,115.005,342.183,115.005z"/>
	</g>
	<path style="fill:none;" d="M183.9,245.479c-63.569,0-115.729-49.749-119.614-112.356H51.45
		c3.903,69.676,61.815,125.167,132.451,125.167c70.635,0,128.547-55.491,132.45-125.167h-12.836
		C299.629,195.73,247.469,245.479,183.9,245.479z"/>
	<path style="fill:none;" d="M178.524,273.181v73.852h10.752v-73.852c-1.785,0.064-3.575,0.108-5.375,0.108
		C182.1,273.289,180.309,273.245,178.524,273.181z"/>
	<path style="fill:none;" d="M342.184,115.005c-5.855,0-10.617,4.763-10.617,10.617c0,5.854,4.763,10.617,10.617,10.617
		c5.854,0,10.616-4.763,10.616-10.617C352.8,119.768,348.038,115.005,342.184,115.005z"/>
	<path style="fill:none;" d="M183.9,245.479c-63.569,0-115.729-49.749-119.614-112.356H51.45
		c3.903,69.676,61.815,125.167,132.451,125.167c70.635,0,128.547-55.491,132.45-125.167h-12.836
		C299.629,195.73,247.469,245.479,183.9,245.479z"/>
	<path style="fill:none;" d="M114.962,204.562c18.445,16.129,42.569,25.917,68.939,25.917c57.817,0,104.855-47.038,104.855-104.856
		c0-26.37-9.789-50.495-25.918-68.941c-19.235-21.996-47.49-35.915-78.937-35.915c-57.818,0-104.856,47.038-104.856,104.855
		C79.044,157.07,92.964,185.327,114.962,204.562z"/>
	<g>
		<path style="fill:none;" d="M25.616,115.005c-5.854,0-10.616,4.763-10.616,10.617c0,5.854,4.762,10.617,10.616,10.617
			c5.854,0,10.617-4.763,10.617-10.617C36.233,119.768,31.471,115.005,25.616,115.005z"/>
	</g>
	<path style="fill:none;" d="M178.524,273.181v73.852h10.752v-73.852c-1.785,0.064-3.575,0.108-5.375,0.108
		C182.1,273.289,180.309,273.245,178.524,273.181z"/>
	<path style="fill:none;" d="M183.9,245.479c-63.569,0-115.729-49.749-119.614-112.356H51.45
		c3.903,69.676,61.815,125.167,132.451,125.167c70.635,0,128.547-55.491,132.45-125.167h-12.836
		C299.629,195.73,247.469,245.479,183.9,245.479z"/>
	<path style="fill:none;" d="M342.184,115.005c-5.855,0-10.617,4.763-10.617,10.617c0,5.854,4.763,10.617,10.617,10.617
		c5.854,0,10.616-4.763,10.616-10.617C352.8,119.768,348.038,115.005,342.184,115.005z"/>
	<path style="fill:none;" d="M183.9,245.479c-63.569,0-115.729-49.749-119.614-112.356H51.45
		c3.903,69.676,61.815,125.167,132.451,125.167c70.635,0,128.547-55.491,132.45-125.167h-12.836
		C299.629,195.73,247.469,245.479,183.9,245.479z"/>
	<path style="fill:#FFE09C;" d="M262.837,56.682c-6.467-7.395-13.957-13.872-22.241-19.219
		c-14.105-7.072-30.012-11.062-46.836-11.062c-57.818,0-104.856,47.038-104.856,104.855c0,36.917,19.179,69.437,48.094,88.125
		c14.121,7.095,30.051,11.097,46.902,11.097c57.817,0,104.855-47.038,104.855-104.856C288.756,99.252,278.967,75.127,262.837,56.682
		z M183.9,49.118c-42.185,0-76.504,34.319-76.504,76.504c0,4.142-3.358,7.5-7.5,7.5c-4.142,0-7.5-3.358-7.5-7.5
		c0-50.456,41.049-91.504,91.504-91.504c4.142,0,7.5,3.358,7.5,7.5C191.4,45.761,188.042,49.118,183.9,49.118z"/>
	<path style="fill:#D15252;" d="M183.9,34.118c-50.456,0-91.504,41.048-91.504,91.504c0,4.142,3.358,7.5,7.5,7.5
		c4.142,0,7.5-3.358,7.5-7.5c0-42.185,34.32-76.504,76.504-76.504c4.142,0,7.5-3.357,7.5-7.5
		C191.4,37.476,188.042,34.118,183.9,34.118z"/>
	<path style="fill:none;" d="M178.524,280.24v66.793h10.752V280.24c-1.785,0.064-3.575,0.108-5.375,0.108
		C182.1,280.348,180.309,280.304,178.524,280.24z"/>
	<path style="fill:none;" d="M114.962,204.562c18.445,16.129,42.569,25.917,68.939,25.917c57.817,0,104.855-47.038,104.855-104.856
		c0-26.37-9.789-50.495-25.918-68.941c-19.235-21.996-47.49-35.915-78.937-35.915c-57.818,0-104.856,47.038-104.856,104.855
		C79.044,157.07,92.964,185.327,114.962,204.562z"/>
	<path style="fill:none;" d="M183.9,245.479c-63.569,0-115.729-49.749-119.614-112.356H51.45
		c3.903,69.676,61.815,125.167,132.451,125.167c70.635,0,128.547-55.491,132.45-125.167h-12.836
		C299.629,195.73,247.469,245.479,183.9,245.479z"/>
	<path style="fill:none;" d="M25.616,115.005c-5.854,0-10.616,4.763-10.616,10.617c0,4.502,2.821,8.349,6.785,9.89
		c1.19,0.463,2.479,0.727,3.831,0.727c5.854,0,10.617-4.763,10.617-10.617c0-1.633-0.381-3.175-1.043-4.559
		C33.48,117.488,29.837,115.005,25.616,115.005z"/>
	<path style="fill:none;" d="M114.962,204.562c6.658,5.822,14.06,10.812,22.037,14.82c-28.915-18.689-48.094-51.209-48.094-88.125
		c0-57.817,47.038-104.855,104.856-104.855c16.824,0,32.731,3.99,46.836,11.062c-16.357-10.558-35.821-16.696-56.696-16.696
		c-57.818,0-104.856,47.038-104.856,104.855C79.044,157.07,92.964,185.327,114.962,204.562z"/>
	<path style="fill:none;" d="M25.616,115.005c-5.854,0-10.616,4.763-10.616,10.617c0,4.502,2.821,8.349,6.785,9.89
		c1.19,0.463,2.479,0.727,3.831,0.727c5.854,0,10.617-4.763,10.617-10.617c0-1.633-0.381-3.175-1.043-4.559
		C33.48,117.488,29.837,115.005,25.616,115.005z"/>
	<path style="fill:none;" d="M178.524,273.181v7.059v66.793h10.752V280.24v-7.059c-1.785,0.064-3.575,0.108-5.375,0.108
		C182.1,273.289,180.309,273.245,178.524,273.181z"/>
	<path style="fill:none;" d="M342.184,115.005c-5.855,0-10.617,4.763-10.617,10.617c0,5.854,4.763,10.617,10.617,10.617
		c5.854,0,10.616-4.763,10.616-10.617C352.8,119.768,348.038,115.005,342.184,115.005z"/>
	<path style="fill:none;" d="M183.9,245.479c-63.569,0-115.729-49.749-119.614-112.356H51.45
		c3.903,69.676,61.815,125.167,132.451,125.167c70.635,0,128.547-55.491,132.45-125.167h-12.836
		C299.629,195.73,247.469,245.479,183.9,245.479z"/>
	<path style="fill:none;" d="M178.524,273.181v7.059v66.793h10.752V280.24v-7.059c-1.785,0.064-3.575,0.108-5.375,0.108
		C182.1,273.289,180.309,273.245,178.524,273.181z"/>
	<path style="fill:none;" d="M21.327,130.051c0-5.854,4.762-10.617,10.616-10.617c0.86,0,1.693,0.115,2.495,0.309
		c-1.904-2.852-5.143-4.738-8.821-4.738c-5.854,0-10.616,4.763-10.616,10.617c0,4.502,2.821,8.349,6.785,9.89
		c0.426,0.166,0.869,0.296,1.318,0.407C21.983,134.237,21.327,132.221,21.327,130.051z"/>
	<path style="fill:none;" d="M114.962,204.562c6.658,5.822,14.06,10.812,22.037,14.82c14.121,7.095,30.051,11.097,46.902,11.097
		c57.817,0,104.855-47.038,104.855-104.856c0-26.37-9.789-50.495-25.918-68.941c-6.467-7.395-13.957-13.872-22.241-19.219
		c-16.357-10.558-35.821-16.696-56.696-16.696c-57.818,0-104.856,47.038-104.856,104.855
		C79.044,157.07,92.964,185.327,114.962,204.562z"/>
	<path style="fill:none;" d="M342.184,115.005c-5.855,0-10.617,4.763-10.617,10.617c0,5.854,4.763,10.617,10.617,10.617
		c5.854,0,10.616-4.763,10.616-10.617C352.8,119.768,348.038,115.005,342.184,115.005z"/>
	<path style="fill:none;" d="M183.9,245.479c-63.569,0-115.729-49.749-119.614-112.356H51.45
		c3.903,69.676,61.815,125.167,132.451,125.167c70.635,0,128.547-55.491,132.45-125.167h-12.836
		C299.629,195.73,247.469,245.479,183.9,245.479z"/>
	<path style="fill:#D15252;" d="M342.184,100.005c-11.517,0-21.28,7.64-24.495,18.117h-14.175
		C299.629,55.515,247.469,5.767,183.9,5.767c-63.569,0-115.729,49.748-119.614,112.355H50.111
		c-3.215-10.477-12.978-18.117-24.495-18.117C11.491,100.005,0,111.497,0,125.623c0,14.125,11.491,25.617,25.616,25.617
		c4.467,0,8.669-1.152,12.33-3.171c9.83,64.173,61.117,114.871,125.578,123.808v75.157h-29.07c-4.142,0-7.5,3.358-7.5,7.5
		c0,4.142,3.358,7.5,7.5,7.5h98.893c4.142,0,7.5-3.358,7.5-7.5c0-4.142-3.358-7.5-7.5-7.5h-29.07v-75.157
		c64.46-8.936,115.748-59.635,125.578-123.808c3.661,2.019,7.863,3.171,12.33,3.171c14.125,0,25.616-11.492,25.616-25.617
		C367.8,111.497,356.309,100.005,342.184,100.005z M15,125.623c0-5.854,4.762-10.617,10.616-10.617c3.679,0,6.917,1.886,8.821,4.738
		c0.281,0.421,0.533,0.861,0.753,1.321c0.662,1.383,1.043,2.925,1.043,4.559c0,5.854-4.763,10.617-10.617,10.617
		c-0.868,0-1.706-0.119-2.513-0.319c-0.45-0.111-0.892-0.241-1.318-0.407C17.821,133.972,15,130.124,15,125.623z M183.9,20.767
		c20.874,0,40.339,6.139,56.696,16.696c8.284,5.347,15.774,11.824,22.241,19.219c16.13,18.445,25.918,42.57,25.918,68.941
		c0,57.818-47.038,104.856-104.855,104.856c-16.851,0-32.781-4.002-46.902-11.097c-7.977-4.007-15.378-8.998-22.037-14.82
		c-21.998-19.235-35.917-47.492-35.917-78.94C79.044,67.805,126.082,20.767,183.9,20.767z M189.276,280.24v66.793h-10.752V280.24
		v-7.059c1.785,0.064,3.576,0.108,5.377,0.108c1.8,0,3.59-0.044,5.375-0.108V280.24z M183.9,258.289
		c-70.635,0-128.548-55.491-132.451-125.167h12.836c3.885,62.608,56.045,112.356,119.614,112.356
		c63.569,0,115.729-49.749,119.614-112.356h12.836C312.448,202.798,254.535,258.289,183.9,258.289z M342.184,136.239
		c-5.855,0-10.617-4.763-10.617-10.617c0-5.854,4.763-10.617,10.617-10.617c5.854,0,10.616,4.763,10.616,10.617
		C352.8,131.477,348.038,136.239,342.184,136.239z"/>
</g>
<g>
</g>
<g>
</g>
<g>
</g>
<g>
</g>
<g>
</g>
<g>
</g>
<g>
</g>
<g>
</g>
<g>
</g>
<g>
</g>
<g>
</g>
<g>
</g>
<g>
</g>
<g>
</g>
<g>
</g>
</svg>
