<?xml version="1.0" encoding="iso-8859-1"?>
<!-- Generator: Adobe Illustrator 19.0.0, SVG Export Plug-In . SVG Version: 6.00 Build 0)  -->
<svg version="1.1" id="Layer_1" xmlns="http://www.w3.org/2000/svg" xmlns:xlink="http://www.w3.org/1999/xlink" x="0px" y="0px"
	 viewBox="0 0 512.001 512.001" style="enable-background:new 0 0 512.001 512.001;" xml:space="preserve">
<path style="fill:#FC7576;" d="M256.003,366.806c-101.128,0-183.403-82.275-183.403-183.403S154.875,0,256.003,0
	s183.403,82.275,183.403,183.403C439.406,284.531,357.131,366.806,256.003,366.806z"/>
<g>
	<path style="fill:#9AE1D3;" d="M303.919,54.433c-14.922-5.546-31.064-8.582-47.916-8.582c-75.968,0-137.552,61.584-137.552,137.552
		c0,16.852,3.036,32.994,8.583,47.916h34.388L303.919,54.433z"/>
	<path style="fill:#9AE1D3;" d="M353.266,86.139h-34.388L158.739,280.667c24.892,24.891,59.279,40.288,97.264,40.288
		c75.968,0,137.552-61.584,137.552-137.552C393.555,145.419,378.158,111.031,353.266,86.139z"/>
</g>
<path style="fill:#FC7576;" d="M72.6,413.556c0,0,0,25.875,0,51.694c0,25.82,82.112,46.751,183.403,46.751
	s183.403-20.931,183.403-46.751c0-25.819,0-51.694,0-51.694H72.6z"/>
<ellipse style="fill:#FF9690;" cx="255.998" cy="413.562" rx="183.403" ry="46.751"/>
<path style="fill:#FD3B6D;" d="M348.939,402.239c-27.572-4.434-59.708-6.777-92.936-6.777c-33.229,0-65.365,2.343-92.935,6.777
	c-5.557,0.893-9.644,5.689-9.644,11.317s4.086,10.424,9.644,11.317c27.572,4.433,59.709,6.776,92.935,6.776
	c33.225,0,65.361-2.343,92.935-6.776c5.558-0.893,9.644-5.689,9.644-11.317S354.495,403.132,348.939,402.239z"/>
<path style="fill:#FFFFFF;" d="M303.919,54.433L127.033,231.319c6.954,18.711,17.858,35.5,31.706,49.348L353.266,86.139
	C339.419,72.291,322.629,61.387,303.919,54.433z"/>
<g>
</g>
<g>
</g>
<g>
</g>
<g>
</g>
<g>
</g>
<g>
</g>
<g>
</g>
<g>
</g>
<g>
</g>
<g>
</g>
<g>
</g>
<g>
</g>
<g>
</g>
<g>
</g>
<g>
</g>
</svg>
