<?xml version="1.0" encoding="iso-8859-1"?>
<!-- Generator: Adobe Illustrator 19.0.0, SVG Export Plug-In . SVG Version: 6.00 Build 0)  -->
<svg version="1.1" id="Layer_1" xmlns="http://www.w3.org/2000/svg" xmlns:xlink="http://www.w3.org/1999/xlink" x="0px" y="0px"
	 viewBox="0 0 512 512" style="enable-background:new 0 0 512 512;" xml:space="preserve">
<circle style="fill:#71E2EF;" cx="256" cy="256" r="256"/>
<path style="fill:#38C6D9;" d="M290.613,179.44l-89.609,243.224l87.314,87.314c119.21-15.019,212.88-112.011,222.798-232.736
	L343.602,94.632l-25.047-9.299h-57.527v14.796l-12.786-12.784l-25.571,4.022l64.469,64.469l1.293-1.293l11.81,11.81l-6.663,16.053
	L290.613,179.44z"/>
<path style="fill:#273B7A;" d="M208.879,426.667h94.241c5.396,0,9.769-4.374,9.769-9.769V151.99c0-5.396-4.374-9.768-9.769-9.768
	h-94.241c-5.396,0-9.769,4.374-9.769,9.768v264.907C199.111,422.293,203.485,426.667,208.879,426.667z"/>
<path style="fill:#121149;" d="M303.12,142.222h-46.545v284.444h46.545c5.396,0,9.769-4.374,9.769-9.769V151.992
	C312.889,146.596,308.515,142.222,303.12,142.222z"/>
<rect x="199.111" y="199.111" style="fill:#FF6262;" width="113.778" height="28.444"/>
<rect x="256.569" y="199.111" style="fill:#FF314F;" width="56.313" height="28.444"/>
<path style="fill:#273B7A;" d="M312.889,77.576h-85.333c-4.284,0-7.758,3.474-7.758,7.758c0,4.284,3.474,7.758,7.758,7.758h20.687
	v49.131c0,4.284,3.474,7.758,7.758,7.758c4.284,0,7.758-3.474,7.758-7.758V93.091h49.131c11.407,0,20.687,9.28,20.687,20.687
	c0,4.284,3.474,7.758,7.758,7.758s7.758-3.474,7.758-7.758C349.091,93.817,332.85,77.576,312.889,77.576z"/>
<path style="fill:#121149;" d="M312.889,77.576h-56.313v72.345c4.01-0.298,7.182-3.612,7.182-7.699V93.091h49.131
	c11.407,0,20.687,9.28,20.687,20.687c0,4.284,3.474,7.758,7.758,7.758s7.758-3.474,7.758-7.758
	C349.091,93.817,332.85,77.576,312.889,77.576z"/>
<rect x="227.556" y="113.778" style="fill:#386895;" width="56.889" height="28.444"/>
<rect x="256.569" y="113.778" style="fill:#273B7A;" width="27.876" height="28.444"/>
<g>
</g>
<g>
</g>
<g>
</g>
<g>
</g>
<g>
</g>
<g>
</g>
<g>
</g>
<g>
</g>
<g>
</g>
<g>
</g>
<g>
</g>
<g>
</g>
<g>
</g>
<g>
</g>
<g>
</g>
</svg>
