<?xml version="1.0" encoding="iso-8859-1"?>
<!-- Generator: Adobe Illustrator 19.0.0, SVG Export Plug-In . SVG Version: 6.00 Build 0)  -->
<svg version="1.1" id="Layer_1" xmlns="http://www.w3.org/2000/svg" xmlns:xlink="http://www.w3.org/1999/xlink" x="0px" y="0px"
	 viewBox="0 0 512 512" style="enable-background:new 0 0 512 512;" xml:space="preserve">
<polygon style="fill:#4E4E4E;" points="240.73,166.315 240.278,0 378.254,0 378.254,50.939 346.907,50.939 346.907,31.347 
	271.724,31.347 272.077,166.217 "/>
<polygon style="fill:#BDBDBD;" points="309.291,77.144 256.001,77.144 235.103,121.856 256.001,166.567 309.291,166.567 "/>
<rect x="202.711" y="77.144" style="fill:#E4E4E4;" width="53.29" height="89.422"/>
<polygon style="fill:#0096E7;" points="378.254,137.544 256.001,137.544 235.103,320.844 256.001,496.327 378.254,496.327 "/>
<rect x="133.748" y="137.54" style="fill:#00CCFF;" width="122.253" height="358.787"/>
<path style="fill:#FF8E00;" d="M297.699,245.203h-41.698l-20.898,75.645l20.898,75.645h41.698c12.558,0,22.737-10.179,22.737-22.737
	V267.94C320.437,255.382,310.256,245.203,297.699,245.203z"/>
<path style="fill:#FFBA00;" d="M214.303,245.203c-12.558,0-22.737,10.18-22.737,22.737v105.816c0,12.558,10.18,22.737,22.737,22.737
	h41.698V245.202h-41.698V245.203z"/>
<g>
	<rect x="224.654" y="279.05" style="fill:#FDE09C;" width="62.694" height="31.347"/>
	<rect x="224.654" y="331.295" style="fill:#FDE09C;" width="62.694" height="31.347"/>
</g>
<polygon style="fill:#4E4E4E;" points="418.512,480.653 256.001,480.653 235.103,496.327 256.001,512 418.512,512 "/>
<rect x="93.488" y="480.653" style="fill:#7C7C7C;" width="162.513" height="31.347"/>
<g>
</g>
<g>
</g>
<g>
</g>
<g>
</g>
<g>
</g>
<g>
</g>
<g>
</g>
<g>
</g>
<g>
</g>
<g>
</g>
<g>
</g>
<g>
</g>
<g>
</g>
<g>
</g>
<g>
</g>
</svg>
