<?xml version="1.0" encoding="iso-8859-1"?>
<!-- Generator: Adobe Illustrator 19.0.0, SVG Export Plug-In . SVG Version: 6.00 Build 0)  -->
<svg version="1.1" id="Layer_1" xmlns="http://www.w3.org/2000/svg" xmlns:xlink="http://www.w3.org/1999/xlink" x="0px" y="0px"
	 viewBox="0 0 512 512" style="enable-background:new 0 0 512 512;" xml:space="preserve">
<path style="fill:#ECD788;" d="M470.993,249.317c0-64.982-96.256-117.66-214.993-117.66S41.007,184.336,41.007,249.317v31.031
	h429.319L470.993,249.317z"/>
<path style="fill:#E7C64B;" d="M470.993,249.317c0-64.982-96.256-117.66-214.993-117.66v148.69h214.325L470.993,249.317z"/>
<path style="fill:#C0369E;" d="M441.242,380.343H70.758C31.679,380.343,0,348.663,0,309.584V249.34h512v60.245
	C512,348.663,480.321,380.343,441.242,380.343z"/>
<path style="fill:#8B2975;" d="M441.242,380.343H256V249.341h256v60.245C512,348.663,480.321,380.343,441.242,380.343z"/>
<g>
</g>
<g>
</g>
<g>
</g>
<g>
</g>
<g>
</g>
<g>
</g>
<g>
</g>
<g>
</g>
<g>
</g>
<g>
</g>
<g>
</g>
<g>
</g>
<g>
</g>
<g>
</g>
<g>
</g>
</svg>
