<?xml version="1.0" encoding="iso-8859-1"?>
<!-- Generator: Adobe Illustrator 19.1.0, SVG Export Plug-In . SVG Version: 6.00 Build 0)  -->
<svg version="1.1" id="Capa_1" xmlns="http://www.w3.org/2000/svg" xmlns:xlink="http://www.w3.org/1999/xlink" x="0px" y="0px"
	 viewBox="0 0 456.017 456.017" style="enable-background:new 0 0 456.017 456.017;" xml:space="preserve">
<g>
	<g id="XMLID_23_">
		<g>
			<path style="fill:#F7F09A;" d="M258.543,189.224l-0.81,0.3c-2.98-4.9-8.38-8.18-14.54-8.18c-0.29,0-0.59,0.01-0.88,0.02v-0.03
				c4.45-0.23,8.6-1.63,12.14-3.9C255.072,181.674,256.483,185.654,258.543,189.224z"/>
			<path style="fill:#F7F09A;" d="M438.682,124.694c22.78,22.79,22.78,59.73,0,82.52l-162.87,162.86
				c-3.15-1.83-6.81-2.87-10.72-2.87c-11.88,0-21.5,9.63-21.5,21.5c0,3.91,1.04,7.57,2.87,10.73l-39.25,39.24
				c-22.79,22.79-59.73,22.79-82.52,0l-107.35-107.35c-22.79-22.79-22.79-59.73,0-82.52l231.47-231.46
				c22.78-22.79,59.72-22.79,82.51,0L438.682,124.694z M393.372,207.884c13.37-13.37,13.37-35.04,0-48.41l-96.83-96.84
				c-13.37-13.37-35.05-13.37-48.42,0l-185.48,185.49c-13.37,13.37-13.37,35.04,0,48.41l96.84,96.84
				c13.37,13.37,35.04,13.37,48.41,0L393.372,207.884z"/>
			<path style="fill:#E5DB83;" d="M393.372,159.474c13.37,13.37,13.37,35.04,0,48.41l-185.48,185.49
				c-13.37,13.37-35.04,13.37-48.41,0l-96.84-96.84c-13.37-13.37-13.37-35.04,0-48.41l185.48-185.49
				c13.37-13.37,35.05-13.37,48.42,0L393.372,159.474z M373.973,190.844c3.95-3.96,3.95-10.37,0-14.33l-94.48-94.47
				c-3.95-3.96-10.36-3.96-14.32,0l-183.12,183.12c-3.96,3.96-3.96,10.37,0,14.33l94.47,94.47c3.96,3.96,10.37,3.96,14.32,0
				L373.973,190.844z"/>
			<path style="fill:#F7F09A;" d="M373.973,176.514c3.95,3.96,3.95,10.37,0,14.33l-183.13,183.12c-3.95,3.96-10.36,3.96-14.32,0
				l-94.47-94.47c-3.96-3.96-3.96-10.37,0-14.33l183.12-183.12c3.96-3.96,10.37-3.96,14.32,0L373.973,176.514z M321.172,172.534
				c0-18.53-15.01-33.55-33.54-33.55c-8.9,0-16.99,3.47-23,9.14c-3.39-9.8-12.7-16.83-23.66-16.83c-13.83,0-25.04,11.21-25.04,25.04
				s11.21,25.04,25.04,25.04c0.45,0,0.9-0.01,1.34-0.04v0.03c-8.98,0.46-16.12,7.88-16.12,16.98c0,9.39,7.61,17,17,17s17-7.61,17-17
				c0-3.22-0.9-6.25-2.46-8.82l0.81-0.3c5.78,10.07,16.65,16.85,29.09,16.85C306.163,206.074,321.172,191.054,321.172,172.534z"/>
			<path style="fill:#61B0E0;" d="M287.633,138.984c18.53,0,33.54,15.02,33.54,33.55c0,18.52-15.01,33.54-33.54,33.54
				c-12.44,0-23.31-6.78-29.09-16.85c-2.06-3.57-3.47-7.55-4.09-11.79c-0.24-1.6-0.36-3.24-0.36-4.9c0-9.62,4.05-18.3,10.54-24.41
				C270.642,142.454,278.733,138.984,287.633,138.984z"/>
			<path style="fill:#61B0E0;" d="M275.812,370.074c6.44,3.71,10.78,10.66,10.78,18.63c0,11.87-9.63,21.5-21.5,21.5
				c-7.97,0-14.92-4.33-18.63-10.77c-1.83-3.16-2.87-6.82-2.87-10.73c0-11.87,9.62-21.5,21.5-21.5
				C269.003,367.204,272.663,368.244,275.812,370.074z"/>
			<path style="fill:#61B0E0;" d="M264.633,148.124c-6.49,6.11-10.54,14.79-10.54,24.41c0,1.66,0.12,3.3,0.36,4.9
				c-3.54,2.27-7.69,3.67-12.14,3.9c-0.44,0.03-0.89,0.04-1.34,0.04c-13.83,0-25.04-11.21-25.04-25.04s11.21-25.04,25.04-25.04
				C251.932,131.294,261.242,138.324,264.633,148.124z"/>
			<path style="fill:#61B0E0;" d="M257.733,189.524c1.56,2.57,2.46,5.6,2.46,8.82c0,9.39-7.61,17-17,17s-17-7.61-17-17
				c0-9.1,7.14-16.52,16.12-16.98c0.29-0.01,0.59-0.02,0.88-0.02C249.352,181.344,254.753,184.624,257.733,189.524z"/>
		</g>
		<g>
		</g>
	</g>
</g>
<g>
</g>
<g>
</g>
<g>
</g>
<g>
</g>
<g>
</g>
<g>
</g>
<g>
</g>
<g>
</g>
<g>
</g>
<g>
</g>
<g>
</g>
<g>
</g>
<g>
</g>
<g>
</g>
<g>
</g>
</svg>
