<?xml version="1.0" encoding="iso-8859-1"?>
<!-- Generator: Adobe Illustrator 19.0.0, SVG Export Plug-In . SVG Version: 6.00 Build 0)  -->
<svg version="1.1" id="Layer_1" xmlns="http://www.w3.org/2000/svg" xmlns:xlink="http://www.w3.org/1999/xlink" x="0px" y="0px"
	 viewBox="0 0 512 512" style="enable-background:new 0 0 512 512;" xml:space="preserve">
<path style="fill:#FFD37D;" d="M294.522,479.797c-42.937,42.937-112.803,42.937-155.741,0L32.204,373.22
	c-42.937-42.937-42.937-112.803,0-155.741L217.479,32.203c42.937-42.937,112.803-42.937,155.741,0L479.796,138.78
	c42.937,42.937,42.937,112.803,0,155.741L294.522,479.797z"/>
<path style="fill:#FFE9BF;" d="M434.713,183.863L328.136,77.287c-18.108-18.108-47.468-18.108-65.576,0L77.287,262.561
	c-18.108,18.108-18.108,47.468,0,65.574l106.577,106.577c18.108,18.108,47.468,18.108,65.576,0l185.275-185.275
	C452.823,231.331,452.823,201.971,434.713,183.863z"/>
<path style="fill:#FFFFFF;" d="M442.911,257.636L257.636,442.911c-22.599,22.599-59.37,22.599-81.969,0L69.091,336.332
	c-10.948-10.945-16.977-25.502-16.978-40.984c0.001-15.482,6.029-30.038,16.977-40.984L254.365,69.089
	c22.599-22.599,59.37-22.599,81.969,0l106.577,106.577C465.51,198.265,465.51,235.037,442.911,257.636z M85.483,270.758
	c-6.568,6.568-10.185,15.302-10.185,24.59c0,9.289,3.618,18.021,10.186,24.59l106.576,106.578c13.559,13.559,35.622,13.559,49.181,0
	l185.275-185.275c13.559-13.559,13.559-35.622,0-49.181L319.939,85.484c-13.559-13.559-35.622-13.559-49.181,0L85.483,270.758z"/>
<g>
</g>
<g>
</g>
<g>
</g>
<g>
</g>
<g>
</g>
<g>
</g>
<g>
</g>
<g>
</g>
<g>
</g>
<g>
</g>
<g>
</g>
<g>
</g>
<g>
</g>
<g>
</g>
<g>
</g>
</svg>
