<?xml version="1.0" encoding="iso-8859-1"?>
<!-- Generator: Adobe Illustrator 19.0.0, SVG Export Plug-In . SVG Version: 6.00 Build 0)  -->
<svg version="1.1" id="Layer_1" xmlns="http://www.w3.org/2000/svg" xmlns:xlink="http://www.w3.org/1999/xlink" x="0px" y="0px"
	 viewBox="0 0 512 512" style="enable-background:new 0 0 512 512;" xml:space="preserve">
<path style="fill:#FAD05B;" d="M191.663,501.801h189.491c25.748,0,45.447-22.937,41.556-48.39l-52.273-342H202.38l-52.273,342
	C146.217,478.864,165.915,501.801,191.663,501.801z"/>
<rect x="247.249" y="57.187" style="fill:#B3B3B3;" width="78.32" height="53.015"/>
<path style="fill:#CCCCCC;" d="M88.804,83.699v16.868h50.606V83.096c0-14.307,11.599-25.906,25.906-25.906h201.822V10.199H162.304
	C121.711,10.199,88.804,43.106,88.804,83.699z"/>
<ellipse style="fill:#E07743;" cx="286.404" cy="316.247" rx="66.269" ry="115.669"/>
<path d="M432.793,451.87l-52.272-342c-0.762-4.98-5.045-8.658-10.082-8.658h-34.671V67.39h31.37c5.633,0,10.199-4.566,10.199-10.199
	V10.199C377.337,4.566,372.771,0,367.138,0H162.304c-46.151,0-83.699,37.547-83.699,83.699v16.868
	c0,5.633,4.566,10.199,10.199,10.199h50.605c5.633,0,10.199-4.566,10.199-10.199V83.096c0-8.66,7.046-15.706,15.707-15.706h71.734
	v33.823h-34.67c-5.037,0-9.321,3.678-10.082,8.658l-52.272,342c-2.304,15.074,2.072,30.356,12.008,41.925
	c9.935,11.569,24.38,18.205,39.63,18.205h189.491c15.25,0,29.695-6.636,39.63-18.205
	C430.719,482.227,435.097,466.945,432.793,451.87z M165.316,46.992c-19.909,0-36.105,16.196-36.105,36.104v7.272H99.004v-6.669
	c0-34.904,28.397-63.3,63.3-63.3H356.94v26.593C356.94,46.992,165.316,46.992,165.316,46.992z M315.37,67.39v32.617h-57.921V67.39
	C257.448,67.39,315.37,67.39,315.37,67.39z M405.309,480.506c-6.055,7.052-14.859,11.096-24.155,11.096H191.663
	c-9.296,0-18.1-4.044-24.155-11.096c-6.056-7.052-8.723-16.366-7.319-25.554l50.949-333.342h150.54l50.949,333.342
	C414.033,464.14,411.365,473.454,405.309,480.506z"/>
<path d="M286.409,190.375c-42.879,0-76.47,55.289-76.47,125.87s33.589,125.87,76.47,125.87c42.879,0,76.469-55.289,76.469-125.87
	S329.288,190.375,286.409,190.375z M286.409,421.717c-30.394,0-56.071-48.3-56.071-105.472s25.677-105.472,56.071-105.472
	c30.394,0,56.07,48.3,56.07,105.472C342.479,373.417,316.803,421.717,286.409,421.717z"/>
<path d="M300.88,291.697c0,5.633,4.566,10.199,10.199,10.199h2.04c5.633,0,10.199-4.566,10.199-10.199
	c0-5.633-4.566-10.199-10.199-10.199h-2.04C305.446,281.498,300.88,286.064,300.88,291.697z"/>
<path d="M259.063,301.896h20.398c5.633,0,10.199-4.566,10.199-10.199c0-5.633-4.566-10.199-10.199-10.199h-20.398
	c-5.633,0-10.199,4.566-10.199,10.199C248.864,297.33,253.43,301.896,259.063,301.896z"/>
<path d="M313.119,329.434h-54.056c-5.633,0-10.199,4.566-10.199,10.199s4.566,10.199,10.199,10.199h54.056
	c5.633,0,10.199-4.566,10.199-10.199S318.752,329.434,313.119,329.434z"/>
<g>
</g>
<g>
</g>
<g>
</g>
<g>
</g>
<g>
</g>
<g>
</g>
<g>
</g>
<g>
</g>
<g>
</g>
<g>
</g>
<g>
</g>
<g>
</g>
<g>
</g>
<g>
</g>
<g>
</g>
</svg>
